<?xml version="1.0" encoding="UTF-8" standalone="no"?>
<svg
   xmlns:dc="http://purl.org/dc/elements/1.1/"
   xmlns:cc="http://creativecommons.org/ns#"
   xmlns:rdf="http://www.w3.org/1999/02/22-rdf-syntax-ns#"
   xmlns:svg="http://www.w3.org/2000/svg"
   xmlns="http://www.w3.org/2000/svg"
   xmlns:sodipodi="http://sodipodi.sourceforge.net/DTD/sodipodi-0.dtd"
   xmlns:inkscape="http://www.inkscape.org/namespaces/inkscape"
   sodipodi:docname="drawing.svg"
   inkscape:version="1.0 (4035a4f, 2020-05-01)"
   id="svg8"
   version="1.1"
   viewBox="0 0 210 297"
   height="297mm"
   width="210mm">
  <defs
     id="defs2">
    <rect
       id="rect12"
       height="24.946429"
       width="37.041667"
       y="25.702381"
       x="44.60119" />
  </defs>
  <sodipodi:namedview
     inkscape:snap-global="false"
     inkscape:window-maximized="0"
     inkscape:window-y="23"
     inkscape:window-x="0"
     inkscape:window-height="1107"
     inkscape:window-width="1252"
     showgrid="false"
     inkscape:document-rotation="0"
     inkscape:current-layer="layer1"
     inkscape:document-units="mm"
     inkscape:cy="560"
     inkscape:cx="-2.8571429"
     inkscape:zoom="0.35"
     inkscape:pageshadow="2"
     inkscape:pageopacity="0.0"
     borderopacity="1.0"
     bordercolor="#666666"
     pagecolor="#ffffff"
     id="base" />
  <metadata
     id="metadata5">
    <rdf:RDF>
      <cc:Work
         rdf:about="">
        <dc:format>image/svg+xml</dc:format>
        <dc:type
           rdf:resource="http://purl.org/dc/dcmitype/StillImage" />
        <dc:title></dc:title>
      </cc:Work>
    </rdf:RDF>
  </metadata>
  <g
     id="layer1"
     inkscape:groupmode="layer"
     inkscape:label="Layer 1">
    <g
       style="font-style:normal;font-weight:normal;font-size:10.5833px;line-height:1.25;font-family:sans-serif;white-space:pre;shape-inside:url(#rect12);fill:#000000;fill-opacity:1;stroke:none"
       id="text10"
       transform="matrix(8.0683694,0,0,8.0683694,-356.09752,-227.58725)"
       aria-label="jx0">
      <path
         id="path52"
         style="font-style:normal;font-variant:normal;font-weight:normal;font-stretch:normal;font-family:Dense;-inkscape-font-specification:Dense"
         d="m 45.606976,30.539693 h -0.550332 v 5.863148 c 0,0.253999 -0.211666,0.465665 -0.465665,0.465665 h -0.201082 v 0.550332 h 0.201082 c 0.560915,0 1.015997,-0.455082 1.015997,-1.015997 z m -0.550332,-0.592665 h 0.550332 v -0.740831 h -0.550332 z" />
      <path
         id="path54"
         style="font-style:normal;font-variant:normal;font-weight:normal;font-stretch:normal;font-family:Dense;-inkscape-font-specification:Dense"
         d="m 47.423831,33.714683 h 0.02117 l 0.634998,1.98966 h 0.550332 l -0.920747,-2.582325 0.920747,-2.582325 h -0.550332 l -0.634998,1.98966 h -0.02117 l -0.634998,-1.98966 h -0.550332 l 0.920747,2.582325 -0.920747,2.582325 h 0.550332 z" />
      <path
         id="path56"
         style="font-style:normal;font-variant:normal;font-weight:normal;font-stretch:normal;font-family:Dense;-inkscape-font-specification:Dense"
         d="m 49.845422,29.798862 c 0,-0.433915 0.359832,-0.793748 0.793748,-0.793748 0.433915,0 0.793747,0.359833 0.793747,0.793748 v 4.667235 c 0,0.433915 -0.359832,0.793748 -0.793747,0.793748 -0.433916,0 -0.793748,-0.359833 -0.793748,-0.793748 z m -0.550331,4.667235 c 0,0.740831 0.603248,1.344079 1.344079,1.344079 0.740831,0 1.344079,-0.603248 1.344079,-1.344079 v -4.667235 c 0,-0.740831 -0.603248,-1.344079 -1.344079,-1.344079 -0.740831,0 -1.344079,0.603248 -1.344079,1.344079 z" />
    </g>
  </g>
</svg>
